<?xml version="1.0" encoding="utf-8"?>
<!-- Generator: Adobe Illustrator 27.9.0, SVG Export Plug-In . SVG Version: 6.00 Build 0)  -->
<svg version="1.1" id="a" xmlns="http://www.w3.org/2000/svg" xmlns:xlink="http://www.w3.org/1999/xlink" x="0px" y="0px"
	 viewBox="0 0 500 200" style="enable-background:new 0 0 500 200;" xml:space="preserve">
<style type="text/css">
	.st0{fill:none;stroke:#FAAA32;stroke-width:11;stroke-miterlimit:10;}
	.st1{fill:#FAAA32;}
	.st2{fill:none;}
</style>
<polyline class="st0" points="393.5,52.2 216.7,52.2 218,157.2 169.6,109 153.3,114.5 "/>
<path class="st1" d="M321.2,77.3l-28.4,73.4c-2.1,5.5-5,9.6-8.5,12.4s-7.9,4.2-13,4.2c-2.5,0-4.8-0.3-7-0.8
	c-2.2-0.5-4.2-1.4-6.2-2.5l6-9.8c1.2,0.7,2.4,1.2,3.3,1.5c1,0.3,2,0.4,3.1,0.4c1.9,0,3.5-0.5,4.8-1.4c1.3-0.9,2.5-2.6,3.6-5.1
	l4.5-10.4l-24-61.9h15.2l14,40.6c0.4,1.2,0.8,2.3,1,3.3c0.2,1,0.5,2.1,0.8,3.5h0.3c0.3-1.4,0.6-2.6,0.9-3.5c0.3-0.9,0.6-2,1-3.2
	L307,77.3L321.2,77.3L321.2,77.3z"/>
<path class="st1" d="M186.9,41.6l-16.2,25.2l16.2,24.8h-12.4l-8.8-14.3c-0.3-0.5-0.6-1.1-0.9-1.7c-0.3-0.6-0.7-1.4-1.2-2.2h-0.2
	c-0.2,0.4-0.4,0.9-0.8,1.5c-0.3,0.6-0.8,1.4-1.4,2.4l-8.9,14.3H140l16.4-24.7l-15.9-25.3h12.3l8.7,14.8c0.4,0.7,0.8,1.4,1.1,2.1
	c0.3,0.7,0.6,1.3,1,2h0.2c0.3-0.7,0.7-1.4,1-2.1c0.3-0.7,0.7-1.4,1.2-2.1l9.1-14.8L186.9,41.6L186.9,41.6z"/>
<rect class="st2" width="500" height="200"/>
</svg>
