<?xml version="1.0" encoding="utf-8"?>
<!-- Generator: Adobe Illustrator 27.9.0, SVG Export Plug-In . SVG Version: 6.00 Build 0)  -->
<svg version="1.1" id="a" xmlns="http://www.w3.org/2000/svg" xmlns:xlink="http://www.w3.org/1999/xlink" x="0px" y="0px"
	 viewBox="0 0 500 300" style="enable-background:new 0 0 500 300;" xml:space="preserve">
<style type="text/css">
	.st0{fill:none;stroke:#FFFFFF;stroke-width:14;stroke-miterlimit:10;}
	.st1{fill:#FFFFFF;}
	.st2{fill:none;}
</style>
<polyline class="st0" points="427.3,63.6 187.4,63.6 189.1,253.4 94.4,136.6 72.3,145.5 "/>
<path class="st1" d="M377.6,120.7l-44.3,71.8l44.1,70.7h-33.9l-24.1-40.8c-0.8-1.5-1.7-3.1-2.6-4.9c-0.9-1.8-2-3.9-3.3-6.4h-0.5
	c-0.5,1.1-1.2,2.6-2.1,4.4c-0.9,1.8-2.2,4.1-3.9,6.8l-24.4,40.9h-33.1l44.9-70.5l-43.5-72.1h33.6l23.7,42.3c1.2,2,2.2,4,3.1,6
	c0.9,1.9,1.8,3.8,2.7,5.7h0.5c0.9-2,1.8-4,2.8-5.9c1-1.9,2-3.9,3.2-5.9l24.8-42.2L377.6,120.7L377.6,120.7z"/>
<rect class="st2" width="500" height="300"/>
</svg>
