<?xml version="1.0" encoding="utf-8"?>
<!-- Generator: Adobe Illustrator 27.9.0, SVG Export Plug-In . SVG Version: 6.00 Build 0)  -->
<svg version="1.1" id="a" xmlns="http://www.w3.org/2000/svg" xmlns:xlink="http://www.w3.org/1999/xlink" x="0px" y="0px"
	 viewBox="0 0 500 200" style="enable-background:new 0 0 500 200;" xml:space="preserve">
<style type="text/css">
	.st0{fill:#FAAA32;}
	.st1{fill:none;}
</style>
<path class="st0" d="M202.3,159.9h-13.9V89.2c-2.5,1.7-5.4,3.2-8.5,4.6c-3.1,1.4-6.1,2.5-9.3,3.5l-3.6-11.6
	c4.9-1.4,9.6-3.3,14.2-5.9c4.7-2.5,8.8-5.3,12.1-8.5h8.9v88.5H202.3z"/>
<path class="st0" d="M249.1,161.4c-9.5,0-16.6-3.6-21.3-11s-7.1-18-7.1-32c0-15,2.5-26.5,7.7-34.3c5.2-7.9,12.4-11.8,21.9-11.8
	c9.9,0,17.1,3.6,21.7,11c4.6,7.4,6.8,18.4,6.8,33.2s-2.5,25.8-7.5,33.4C266,157.5,258.8,161.4,249.1,161.4L249.1,161.4z M250,83.2
	c-5.2,0-8.9,2.9-11.3,8.6c-2.4,5.7-3.6,14.3-3.6,25.9c0,10.9,1.3,18.9,3.6,24.2c2.4,5.4,6.1,8.1,11.1,8.1s8.9-2.8,11.1-8.2
	c2.4-5.6,3.5-13.8,3.5-24.9s-1.3-19.6-3.6-25.2C258.5,86.2,255,83.2,250,83.2L250,83.2z"/>
<path class="st0" d="M335.8,43l-16.1,25.2l16.1,24.6h-12.4l-8.7-14.1c-0.4-0.6-0.6-1.2-1-1.7c-0.4-0.6-0.8-1.4-1.2-2.3h-0.2
	c-0.2,0.4-0.4,1-0.8,1.6c-0.4,0.6-0.8,1.4-1.4,2.3l-8.9,14.3h-12l16.5-24.6L289.8,43h12.2l8.7,14.7c0.4,0.8,0.8,1.4,1.2,2.1
	c0.4,0.8,0.6,1.4,1,1.9h0.2c0.4-0.8,0.6-1.4,1-2.1c0.4-0.6,0.8-1.4,1.2-2.1l9.1-14.7L335.8,43L335.8,43z"/>
<rect class="st1" width="500" height="199.2"/>
</svg>
