<?xml version="1.0" encoding="utf-8"?>
<!-- Generator: Adobe Illustrator 27.9.0, SVG Export Plug-In . SVG Version: 6.00 Build 0)  -->
<svg version="1.1" id="a" xmlns="http://www.w3.org/2000/svg" xmlns:xlink="http://www.w3.org/1999/xlink" x="0px" y="0px"
	 viewBox="0 0 500 200" style="enable-background:new 0 0 500 200;" xml:space="preserve">
<style type="text/css">
	.st0{fill:#FAAA32;}
	.st1{fill:none;}
</style>
<path class="st0" d="M267.6,121.6h-59.4c0.2,8.3,2.5,14.6,6.8,18.7c4.3,4.2,9.6,6.2,16.1,6.2c4.5,0,8.5-1.1,11.9-3.2
	c3.4-2.1,6.4-5.3,8.9-9.3l14.9,8.1c-4,6.2-8.9,11.2-14.9,14.6c-6.1,3.4-13.2,5.1-21.4,5.1c-12.7,0-22.7-3.8-30.4-11.3
	c-7.8-7.6-11.3-18.5-11.3-32.9s4-24.6,11.7-33.1c7.8-8.5,17.6-12.7,29.3-12.7s21.4,3.6,28,10.8c6.6,7.2,10,17.6,10,31.4L267.6,121.6
	L267.6,121.6z M248.6,107.8c0-6.8-1.7-11.9-5.1-15.7c-3.4-3.8-7.9-5.5-13.8-5.5c-5.9,0-11,2.1-14.9,6.1c-3.8,4-6.1,9.1-6.8,15.1
	H248.6z"/>
<path class="st0" d="M317.6,45.6l-16,25.1l16,24.7h-12.4l-8.7-14.3c-0.4-0.6-0.6-1.2-1-1.7c-0.4-0.6-0.8-1.4-1.2-2.3h-0.2
	c-0.2,0.4-0.4,1-0.8,1.5c-0.4,0.6-0.8,1.4-1.4,2.3l-8.9,14.3h-12l16.4-24.5l-15.8-25.1H284l8.7,14.7c0.4,0.8,0.8,1.4,1.2,2.1
	c0.4,0.8,0.6,1.4,1,1.9h0.2c0.4-0.8,0.6-1.4,1-2.1c0.4-0.6,0.8-1.4,1.2-2.1l9.1-14.7L317.6,45.6L317.6,45.6z"/>
<rect class="st1" width="500" height="200"/>
</svg>
