<?xml version="1.0" encoding="utf-8"?>
<!-- Generator: Adobe Illustrator 27.9.0, SVG Export Plug-In . SVG Version: 6.00 Build 0)  -->
<svg version="1.1"
	 id="svg3049" xmlns:rdf="http://www.w3.org/1999/02/22-rdf-syntax-ns#" xmlns:dc="http://purl.org/dc/elements/1.1/" xmlns:sodipodi="http://sodipodi.sourceforge.net/DTD/sodipodi-0.dtd" xmlns:inkscape="http://www.inkscape.org/namespaces/inkscape" xmlns:cc="http://creativecommons.org/ns#" xmlns:svg="http://www.w3.org/2000/svg" inkscape:version="0.48.2 r9819" sodipodi:docname="Novo documento 3"
	 xmlns="http://www.w3.org/2000/svg" xmlns:xlink="http://www.w3.org/1999/xlink" x="0px" y="0px" viewBox="0 0 500 300"
	 style="enable-background:new 0 0 500 300;" xml:space="preserve">
<style type="text/css">
	.st0{fill:#FFFFFF;}
	.st1{fill:none;}
</style>
<sodipodi:namedview  bordercolor="#666666" borderopacity="1.0" id="base" inkscape:current-layer="layer1" inkscape:cx="653.59618" inkscape:cy="454.34248" inkscape:document-units="px" inkscape:guide-bbox="true" inkscape:pageopacity="0.0" inkscape:pageshadow="2" inkscape:window-height="935" inkscape:window-maximized="1" inkscape:window-width="1280" inkscape:window-x="0" inkscape:window-y="33" inkscape:zoom="0.49497475" pagecolor="#ffffff" showgrid="false" showguides="true">
	</sodipodi:namedview>
<g id="layer1" inkscape:groupmode="layer" inkscape:label="Camada 1">
	
		<path id="path15823" inkscape:connector-curvature="0" inkscape:export-filename="/home/professor/Imagens/png/formula.png" inkscape:export-xdpi="200" inkscape:export-ydpi="200" sodipodi:nodetypes="cccccccccccccccccc" class="st0" d="
		M219.6,103.7c-7.1,36.8-4.6,65.2-31.8,113.1c-7.1,17.7,13.3,24.4,21.9,10.5c10.3-21.7,16.2-66,19.6-123.8h44.8l-6.1,96.3
		c-1.1,51.3,52.6,42,65.6-5.7h-4.2c-25.2,47.7-48.4,20.6-46-15.4l5.3-74.8l45.2-0.6V86H222.7c-29.2,1.1-36.8,3.2-44.4,17.7
		l-12.2,23.6l4.2,0.4c8.8-16.4,17.7-24.4,33.8-24.4L219.6,103.7z"/>
</g>
<rect class="st1" width="500" height="300"/>
</svg>
