<?xml version="1.0" encoding="utf-8"?>
<!-- Generator: Adobe Illustrator 27.9.0, SVG Export Plug-In . SVG Version: 6.00 Build 0)  -->
<svg version="1.1" id="a" xmlns="http://www.w3.org/2000/svg" xmlns:xlink="http://www.w3.org/1999/xlink" x="0px" y="0px"
	 viewBox="0 0 500 300" style="enable-background:new 0 0 500 300;" xml:space="preserve">
<style type="text/css">
	.st0{fill:#FFFFFF;}
	.st1{fill:none;}
</style>
<path class="st0" d="M272.1,93.2l-58.4,150.7c-4.3,11.2-10.2,19.7-17.5,25.5c-7.3,5.8-16.2,8.7-26.7,8.7c-5.1,0-9.8-0.6-14.3-1.7
	c-4.5-1.1-8.7-2.8-12.7-5.2l12.4-20.1c2.5,1.5,4.8,2.5,6.9,3.1s4.2,0.9,6.4,0.9c3.8,0,7.1-1,9.9-2.9c2.7-1.9,5.2-5.4,7.4-10.5
	l9.2-21.3L145.3,93.2h31.2l28.8,83.3c0.9,2.5,1.6,4.8,2.1,6.7s1.1,4.4,1.7,7.2h0.6c0.6-2.9,1.2-5.2,1.8-7.1c0.6-1.9,1.3-4.1,2.2-6.6
	l29.1-83.6L272.1,93.2L272.1,93.2z"/>
<path class="st0" d="M370,38.5l-29.1,45.2l29,44.5h-22.3l-15.9-25.7c-0.5-0.9-1.1-2-1.7-3.1s-1.3-2.5-2.2-4h-0.4
	c-0.4,0.7-0.8,1.6-1.4,2.8c-0.6,1.1-1.4,2.5-2.5,4.3l-16,25.8h-21.7l29.5-44.4l-28.6-45.4h22.1l15.6,26.6c0.8,1.3,1.4,2.5,2,3.8
	c0.6,1.2,1.2,2.4,1.8,3.6h0.4c0.6-1.3,1.2-2.5,1.8-3.7c0.6-1.2,1.3-2.4,2.1-3.7l16.3-26.5L370,38.5L370,38.5z"/>
<rect class="st1" width="500" height="300"/>
</svg>
